<?xml version="1.0" encoding="UTF-8"?>
<svg id="Capa_1" data-name="Capa 1" xmlns="http://www.w3.org/2000/svg" viewBox="0 0 1080 1080">
  <defs>
    <style>
      .cls-1 {
        fill: #fff;
        fill-rule: evenodd;
      }

      .cls-2 {
        fill: #001382;
      }
    </style>
  </defs>
  <rect class="cls-2" x="-28" y="-24" width="1135" height="1135"/>
  <path class="cls-1" d="M860.9,626.54c-23.74,0-44.4,16.36-51.14,38.19h-71.84l-82.47-82.49c-2.29-3.05-6.11-4.59-10.7-4.59h-38.52v-72.55h150.01c6.57,21.83,26.83,38.19,51.19,38.19,29.03,0,52.7-24.44,52.7-53.46s-23.67-53.47-52.7-53.47c-24.56,0-44.92,15.6-51.33,38.19h-149.87v-74.85h38.52c3.82,0,8.41-1.52,10.7-4.59l82.47-81.72h71.84c6.74,21.84,27.4,38.19,51.14,38.19,29.79,0,53.46-24.44,53.46-53.47,0-30.54-23.67-53.46-53.46-53.46-24.47,0-44.79,15.98-51.28,38.19h-77.8c-3.82,0-7.64,1.52-10.69,4.57l-82.49,81.72h-32.42v-135.13H235.81v117.48h236.61v281.49c0,26.11-7.75,47.19-23.25,63.23-15.5,16.05-36.59,24.06-63.23,24.06s-48.55-8.02-64.05-24.06c-15.5-16.04-23.25-37.12-23.25-63.23v-37.53h-132.99v30.19c0,46.79,8.98,86.49,26.92,119.12,17.95,32.64,43.37,57.66,76.29,75.06,32.9,17.4,71.93,26.11,117.08,26.11s84.98-8.71,117.9-26.11c32.9-17.4,58.2-42.43,75.88-75.06,17.67-32.63,26.52-72.33,26.52-119.12v-17.45h32.42l82.49,82.49c3.05,3.05,6.87,4.57,10.69,4.57h77.87c6.58,21.83,26.84,38.19,51.2,38.19,29.79,0,53.46-23.67,53.46-53.46s-23.67-53.47-53.46-53.47ZM807.43,466.93c12.23,0,22.15,9.93,22.15,22.92,0,12.21-9.92,22.9-22.15,22.9-12.98,0-22.9-10.69-22.9-22.9,0-12.98,9.92-22.92,22.9-22.92ZM860.9,275.23c12.98,0,22.9,9.92,22.9,22.9,0,12.23-9.92,22.92-22.9,22.92-12.23,0-22.92-10.69-22.92-22.92,0-12.98,9.93-22.9,22.92-22.9ZM860.9,702.92c-12.98,0-22.92-10.69-22.92-22.9s10.69-22.92,22.92-22.92c12.98,0,22.9,9.93,22.9,22.92,0,12.21-9.92,22.9-22.9,22.9Z"/>
</svg>