<?xml version="1.0" encoding="UTF-8"?>
<svg id="Capa_1" data-name="Capa 1" xmlns="http://www.w3.org/2000/svg" viewBox="0 0 1366 768">
  <defs>
    <style>
      .cls-1 {
        fill-rule: evenodd;
      }

      .cls-1, .cls-2 {
        fill: #001382;
      }
    </style>
  </defs>
  <g>
    <g>
      <path class="cls-2" d="M533.82,307.1h52.07v61.94c0,5.75-1.71,10.39-5.12,13.91-3.41,3.53-8.05,5.3-13.91,5.3s-10.68-1.76-14.09-5.3c-3.41-3.53-5.12-8.17-5.12-13.91v-8.26h-29.26v6.64c0,10.3,1.98,19.03,5.92,26.21,3.95,7.18,9.54,12.69,16.79,16.52,7.24,3.83,15.83,5.75,25.76,5.75s18.7-1.92,25.94-5.75c7.24-3.83,12.81-9.34,16.7-16.52,3.89-7.18,5.83-15.92,5.83-26.21v-86.18h-81.51v25.85Z"/>
      <path class="cls-2" d="M757.7,298.66c-5.87-6.46-13.17-11.64-21.9-15.53-8.74-3.89-18.85-5.83-30.34-5.83s-21.76,1.95-30.43,5.83c-8.68,3.89-15.98,9.07-21.9,15.53-5.92,6.46-10.35,13.68-13.29,21.63-2.93,7.96-4.4,16.01-4.4,24.15v3.95c0,7.42,1.44,15.05,4.31,22.89,2.87,7.84,7.18,15.14,12.93,21.9,5.75,6.76,13.02,12.24,21.81,16.43s19.12,6.28,30.97,6.28,22.17-2.1,30.97-6.28c8.8-4.19,16.07-9.66,21.81-16.43,5.75-6.76,10.05-14.06,12.93-21.9,2.87-7.84,4.31-15.47,4.31-22.89v-3.95c0-8.14-1.5-16.19-4.49-24.15-2.99-7.96-7.42-15.17-13.29-21.63ZM742.89,362.75c-1.86,5.03-4.52,9.46-7.99,13.29-3.47,3.83-7.69,6.82-12.66,8.98-4.97,2.15-10.57,3.23-16.79,3.23s-11.79-1.08-16.7-3.23c-4.91-2.15-9.13-5.14-12.66-8.98-3.53-3.83-6.19-8.26-7.99-13.29-1.79-5.03-2.69-10.41-2.69-16.16,0-6.1.9-11.7,2.69-16.79,1.79-5.09,4.46-9.48,7.99-13.2,3.53-3.71,7.75-6.58,12.66-8.62,4.9-2.03,10.47-3.05,16.7-3.05s11.64,1.02,16.61,3.05c4.96,2.04,9.21,4.91,12.75,8.62,3.53,3.71,6.22,8.11,8.08,13.2,1.85,5.09,2.78,10.68,2.78,16.79,0,5.75-.93,11.13-2.78,16.16Z"/>
      <path class="cls-2" d="M872.96,339.68c-7.3-3.29-15.74-5.36-25.31-6.19l-10.05-.9c-5.99-.48-10.3-2.09-12.93-4.85-2.63-2.75-3.95-5.92-3.95-9.52,0-2.99.72-5.71,2.15-8.17,1.44-2.45,3.62-4.37,6.55-5.75,2.93-1.37,6.55-2.06,10.86-2.06,4.55,0,8.35.81,11.4,2.42s5.36,3.77,6.91,6.46c1.55,2.69,2.33,5.66,2.33,8.89h28.73c0-8.5-1.97-15.95-5.92-22.35-3.95-6.4-9.6-11.4-16.97-14.99-7.36-3.59-16.19-5.39-26.48-5.39s-18.31,1.65-25.49,4.94c-7.18,3.29-12.78,7.99-16.79,14.09-4.01,6.1-6.01,13.41-6.01,21.9,0,11.61,3.89,20.92,11.67,27.92,7.78,7,18.19,11.1,31.24,12.3l9.87.72c8.02.72,13.82,2.31,17.42,4.76,3.59,2.45,5.39,5.78,5.39,9.96,0,3.35-.96,6.32-2.87,8.89-1.92,2.58-4.73,4.58-8.44,6.02-3.71,1.44-8.32,2.15-13.82,2.15-6.11,0-11.07-.87-14.9-2.6-3.83-1.73-6.67-4.04-8.53-6.91-1.86-2.87-2.78-5.98-2.78-9.34h-28.73c0,8.5,2.12,16.01,6.37,22.53,4.25,6.52,10.44,11.7,18.58,15.53,8.14,3.83,18.13,5.75,29.98,5.75,11.13,0,20.71-1.74,28.73-5.21,8.02-3.47,14.21-8.38,18.58-14.72,4.37-6.34,6.55-13.7,6.55-22.08s-2.06-15.05-6.19-20.74c-4.13-5.68-9.85-10.17-17.15-13.47Z"/>
      <polygon class="cls-2" points="945.14 357.91 994.69 357.91 994.69 333.49 945.14 333.49 945.14 305.66 997.56 305.66 997.56 281.24 945.14 281.24 941.55 281.24 916.41 281.24 916.41 412.3 941.55 412.3 945.14 412.3 998.82 412.3 998.82 387.89 945.14 387.89 945.14 357.91"/>
      <path class="cls-2" d="M1099.63,285.73c-7.96-3.71-17.51-5.57-28.64-5.57h-47.94v132.14h29.44v-37.52h18.49c11.13,0,20.67-1.85,28.64-5.57,7.96-3.71,14.06-9.01,18.31-15.89,4.25-6.88,6.37-14.99,6.37-24.33v-2.87c0-9.45-2.13-17.62-6.37-24.51-4.25-6.88-10.35-12.18-18.31-15.89ZM1091.73,338.96c-1.74,3.29-4.25,5.83-7.54,7.63-3.29,1.79-7.21,2.69-11.76,2.69h-19.93v-43.63h19.93c4.55,0,8.47.9,11.76,2.69,3.29,1.8,5.8,4.34,7.54,7.63,1.73,3.29,2.6,7.15,2.6,11.58s-.87,8.11-2.6,11.4Z"/>
      <polygon class="cls-2" points="1227.37 281.24 1227.37 333.49 1172.25 333.49 1172.25 281.24 1142.81 281.24 1142.81 412.3 1172.25 412.3 1172.25 359.34 1227.37 359.34 1227.37 412.3 1256.99 412.3 1256.99 281.24 1227.37 281.24"/>
    </g>
    <g>
      <path class="cls-2" d="M549.73,484.05c-2.51,1.86-5.6,2.79-9.28,2.79-2.65,0-4.97-.47-6.96-1.41-1.99-.94-3.65-2.23-4.97-3.87-1.33-1.64-2.31-3.49-2.96-5.55-.65-2.06-.97-4.22-.97-6.47,0-2.36.33-4.58.99-6.66.66-2.08,1.64-3.92,2.93-5.53,1.29-1.6,2.9-2.85,4.84-3.76,1.93-.9,4.17-1.35,6.71-1.35,2.36,0,4.5.4,6.44,1.21,1.93.81,3.53,2.02,4.78,3.62,1.25,1.6,2.03,3.6,2.32,6h4.26c-.33-2.98-1.25-5.57-2.76-7.76-1.51-2.19-3.53-3.9-6.05-5.11-2.52-1.21-5.52-1.82-8.98-1.82s-6.39.6-8.9,1.8c-2.51,1.2-4.56,2.79-6.16,4.78-1.6,1.99-2.78,4.21-3.54,6.66-.76,2.45-1.13,4.91-1.13,7.38v1.05c0,2.28.37,4.63,1.11,7.05.74,2.41,1.91,4.65,3.51,6.72,1.6,2.06,3.68,3.73,6.24,5,2.56,1.27,5.65,1.91,9.26,1.91s6.64-.65,9.2-1.93c2.56-1.29,4.6-3.05,6.11-5.28,1.51-2.23,2.47-4.73,2.87-7.49h-4.26c-.59,3.5-2.14,6.18-4.64,8.04Z"/>
      <path class="cls-2" d="M600.24,454.95c-1.73-1.99-3.88-3.58-6.44-4.78-2.56-1.2-5.55-1.8-8.98-1.8s-6.37.6-8.95,1.8c-2.58,1.2-4.73,2.79-6.47,4.78-1.73,1.99-3.03,4.21-3.9,6.66-.87,2.45-1.3,4.91-1.3,7.38v1c0,2.32.42,4.7,1.27,7.13.85,2.43,2.12,4.68,3.81,6.74,1.69,2.06,3.83,3.72,6.41,4.97,2.58,1.25,5.62,1.88,9.12,1.88s6.54-.63,9.12-1.88c2.58-1.25,4.73-2.91,6.44-4.97s2.98-4.3,3.81-6.71c.83-2.41,1.24-4.78,1.24-7.1v-1.05c0-2.47-.43-4.93-1.3-7.38-.87-2.45-2.16-4.67-3.9-6.66ZM600.07,476.01c-.74,2.06-1.81,3.92-3.21,5.55-1.4,1.64-3.11,2.93-5.14,3.87-2.03.94-4.33,1.41-6.91,1.41s-4.84-.47-6.88-1.41-3.77-2.23-5.17-3.87c-1.4-1.64-2.47-3.49-3.21-5.55-.74-2.06-1.11-4.22-1.11-6.47,0-2.36.38-4.57,1.13-6.63.75-2.06,1.84-3.9,3.26-5.5,1.42-1.6,3.14-2.86,5.17-3.79,2.03-.92,4.29-1.38,6.8-1.38s4.83.46,6.85,1.38c2.03.92,3.75,2.18,5.17,3.79,1.42,1.6,2.5,3.44,3.23,5.5.74,2.06,1.11,4.27,1.11,6.63s-.37,4.4-1.11,6.47Z"/>
      <polygon class="cls-2" points="634.22 477.33 633.23 477.33 620.52 449.43 615.05 449.43 615.05 489.77 618.92 489.77 618.92 455.15 630.8 481.26 636.32 481.26 648.26 454.91 648.26 489.77 652.46 489.77 652.46 449.43 646.88 449.43 634.22 477.33"/>
      <path class="cls-2" d="M684.87,450.86c-2.12-1.07-4.8-1.6-8.04-1.6h-11.77v40.51h4.2v-14.76h7.57c3.24,0,5.92-.53,8.04-1.6,2.12-1.07,3.7-2.55,4.75-4.45,1.05-1.9,1.57-4.04,1.57-6.44v-.77c0-2.43-.53-4.59-1.57-6.47-1.05-1.88-2.63-3.35-4.75-4.42ZM685.9,466.75c-.66,1.38-1.68,2.49-3.04,3.32-1.36.83-3.13,1.24-5.31,1.24h-8.29v-18.35h8.29c2.17,0,3.94.41,5.31,1.22,1.36.81,2.38,1.91,3.04,3.29.66,1.38.99,2.94.99,4.67s-.33,3.23-.99,4.61Z"/>
      <path class="cls-2" d="M727.78,474.52c0,2.47-.46,4.63-1.38,6.49s-2.28,3.3-4.09,4.31c-1.81,1.01-4.05,1.52-6.74,1.52s-5-.52-6.82-1.55c-1.82-1.03-3.19-2.47-4.09-4.31-.9-1.84-1.35-4-1.35-6.47v-25.09h-4.2v24.59c0,3.28.61,6.18,1.82,8.7,1.22,2.52,3.04,4.49,5.47,5.89,2.43,1.4,5.49,2.1,9.17,2.1s6.73-.7,9.15-2.1c2.41-1.4,4.23-3.36,5.44-5.89,1.22-2.52,1.82-5.42,1.82-8.7v-24.59h-4.2v25.09Z"/>
      <polygon class="cls-2" points="738.95 453.24 751.55 453.24 751.55 489.77 755.75 489.77 755.75 453.24 768.35 453.24 768.35 449.43 738.95 449.43 738.95 453.24"/>
      <polygon class="cls-2" points="780.39 471.14 797.69 471.14 797.69 467.39 780.39 467.39 780.39 453.24 798.96 453.24 798.96 449.43 780.39 449.43 779.4 449.43 776.19 449.43 776.19 489.77 779.4 489.77 780.39 489.77 799.57 489.77 799.57 485.95 780.39 485.95 780.39 471.14"/>
      <path class="cls-2" d="M829.69,473.05c2.06-.94,3.65-2.32,4.75-4.14s1.66-4.04,1.66-6.66v-.77c0-2.62-.54-4.84-1.63-6.66-1.09-1.82-2.67-3.2-4.75-4.15-2.08-.94-4.61-1.41-7.6-1.41h-12.6v40.51h4.2v-15.31h8.4c.21,0,.41-.02.61-.03l11.82,15.33h5.14l-12.45-15.9c.87-.22,1.7-.48,2.45-.82ZM813.72,452.96h9.12c1.99,0,3.65.4,4.97,1.19,1.33.79,2.32,1.85,2.98,3.18.66,1.33,1,2.84,1,4.53s-.33,3.21-1,4.53c-.66,1.33-1.66,2.38-2.98,3.15-1.33.77-2.98,1.16-4.97,1.16h-9.12v-17.74Z"/>
      <polygon class="cls-2" points="864.56 471.14 881.85 471.14 881.85 467.39 864.56 467.39 864.56 453.24 883.12 453.24 883.12 449.43 864.56 449.43 863.56 449.43 860.36 449.43 860.36 489.77 863.56 489.77 864.56 489.77 883.73 489.77 883.73 485.95 864.56 485.95 864.56 471.14"/>
      <polygon class="cls-2" points="923.47 485.95 922.8 485.95 900.7 449.43 893.68 449.43 893.68 489.77 897.66 489.77 897.66 453.24 898.32 453.24 920.43 489.77 927.5 489.77 927.5 449.43 923.47 449.43 923.47 485.95"/>
      <path class="cls-2" d="M956.24,474.35h13.82v7.86c-1.1,1.12-2.4,2.09-3.95,2.89-2.41,1.23-5.2,1.85-8.37,1.85-2.58,0-4.87-.42-6.88-1.27-2.01-.85-3.71-2.04-5.11-3.59-1.4-1.55-2.47-3.4-3.21-5.55-.74-2.16-1.11-4.54-1.11-7.16,0-2.47.36-4.74,1.08-6.83.72-2.08,1.74-3.9,3.07-5.44,1.33-1.55,2.95-2.74,4.86-3.59,1.92-.85,4.05-1.27,6.41-1.27s4.33.4,6.24,1.21c1.92.81,3.51,2.03,4.78,3.65,1.27,1.62,2.05,3.61,2.35,5.97h4.26c-.26-2.91-1.17-5.47-2.74-7.68s-3.62-3.93-6.16-5.17c-2.54-1.23-5.45-1.85-8.73-1.85s-5.93.57-8.4,1.71c-2.47,1.14-4.53,2.69-6.19,4.64-1.66,1.95-2.92,4.14-3.79,6.58-.87,2.43-1.3,4.94-1.3,7.52v1c0,2.8.45,5.46,1.35,7.99.9,2.52,2.22,4.75,3.95,6.69,1.73,1.93,3.88,3.45,6.44,4.56s5.5,1.66,8.81,1.66c3.61,0,6.8-.64,9.56-1.91,2.76-1.27,5.01-3.03,6.74-5.28v-9.17h3.59v-3.54h-21.39v3.54Z"/>
      <rect class="cls-2" x="986.13" y="449.43" width="4.2" height="40.34"/>
      <polygon class="cls-2" points="1032.83 485.95 1032.17 485.95 1010.06 449.43 1003.05 449.43 1003.05 489.77 1007.02 489.77 1007.02 453.24 1007.69 453.24 1029.79 489.77 1036.87 489.77 1036.87 449.43 1032.83 449.43 1032.83 485.95"/>
      <polygon class="cls-2" points="1053.66 471.14 1070.96 471.14 1070.96 467.39 1053.66 467.39 1053.66 453.24 1072.23 453.24 1072.23 449.43 1053.66 449.43 1052.67 449.43 1049.46 449.43 1049.46 489.77 1052.67 489.77 1053.66 489.77 1072.84 489.77 1072.84 485.95 1053.66 485.95 1053.66 471.14"/>
      <polygon class="cls-2" points="1086.99 471.14 1104.28 471.14 1104.28 467.39 1086.99 467.39 1086.99 453.24 1105.56 453.24 1105.56 449.43 1086.99 449.43 1085.99 449.43 1082.79 449.43 1082.79 489.77 1085.99 489.77 1086.99 489.77 1106.16 489.77 1106.16 485.95 1086.99 485.95 1086.99 471.14"/>
      <path class="cls-2" d="M1136.28,473.05c2.06-.94,3.65-2.32,4.75-4.14s1.66-4.04,1.66-6.66v-.77c0-2.62-.54-4.84-1.63-6.66-1.09-1.82-2.67-3.2-4.75-4.15-2.08-.94-4.61-1.41-7.6-1.41h-12.6v40.51h4.2v-15.31h8.4c.21,0,.41-.02.61-.03l11.82,15.33h5.14l-12.45-15.9c.87-.22,1.7-.48,2.45-.82ZM1120.31,452.96h9.12c1.99,0,3.65.4,4.97,1.19,1.33.79,2.32,1.85,2.98,3.18.66,1.33,1,2.84,1,4.53s-.33,3.21-1,4.53c-.66,1.33-1.66,2.38-2.98,3.15-1.33.77-2.98,1.16-4.97,1.16h-9.12v-17.74Z"/>
      <rect class="cls-2" x="1154.19" y="449.43" width="4.2" height="40.34"/>
      <polygon class="cls-2" points="1200.88 485.95 1200.22 485.95 1178.12 449.43 1171.1 449.43 1171.1 489.77 1175.08 489.77 1175.08 453.24 1175.74 453.24 1197.84 489.77 1204.92 489.77 1204.92 449.43 1200.88 449.43 1200.88 485.95"/>
      <path class="cls-2" d="M1255.04,470.81h-21.39v3.54h13.82v7.86c-1.1,1.12-2.4,2.09-3.95,2.89-2.41,1.23-5.2,1.85-8.37,1.85-2.58,0-4.87-.42-6.88-1.27-2.01-.85-3.71-2.04-5.11-3.59-1.4-1.55-2.47-3.4-3.21-5.55-.74-2.16-1.11-4.54-1.11-7.16,0-2.47.36-4.74,1.08-6.83.72-2.08,1.74-3.9,3.07-5.44,1.33-1.55,2.95-2.74,4.86-3.59,1.92-.85,4.05-1.27,6.41-1.27s4.33.4,6.24,1.21c1.92.81,3.51,2.03,4.78,3.65,1.27,1.62,2.05,3.61,2.35,5.97h4.26c-.26-2.91-1.17-5.47-2.74-7.68s-3.62-3.93-6.16-5.17c-2.54-1.23-5.45-1.85-8.73-1.85s-5.93.57-8.4,1.71c-2.47,1.14-4.53,2.69-6.19,4.64-1.66,1.95-2.92,4.14-3.79,6.58-.87,2.43-1.3,4.94-1.3,7.52v1c0,2.8.45,5.46,1.35,7.99.9,2.52,2.22,4.75,3.95,6.69,1.73,1.93,3.88,3.45,6.44,4.56s5.5,1.66,8.81,1.66c3.61,0,6.8-.64,9.56-1.91,2.76-1.27,5.01-3.03,6.74-5.28v-9.17h3.59v-3.54Z"/>
    </g>
  </g>
  <path class="cls-1" d="M453.93,426.93c-11.78,0-22.03,8.11-25.37,18.95h-35.64l-40.91-40.92c-1.14-1.51-3.03-2.28-5.31-2.28h-19.11v-35.99h74.42c3.26,10.83,13.31,18.95,25.4,18.95,14.4,0,26.15-12.13,26.15-26.52s-11.74-26.53-26.15-26.53c-12.18,0-22.29,7.74-25.46,18.95h-74.35v-37.13h19.11c1.89,0,4.17-.76,5.31-2.28l40.91-40.54h35.64c3.35,10.83,13.59,18.95,25.37,18.95,14.78,0,26.52-12.13,26.52-26.53,0-15.15-11.74-26.52-26.52-26.52-12.14,0-22.22,7.93-25.44,18.95h-38.6c-1.89,0-3.79.76-5.3,2.27l-40.92,40.54h-16.08v-67.04h-183.77v58.28h117.38v139.65c0,12.95-3.85,23.41-11.54,31.37-7.69,7.96-18.15,11.94-31.37,11.94s-24.08-3.98-31.77-11.94c-7.69-7.96-11.54-18.42-11.54-31.37v-18.62h-65.98v14.98c0,23.21,4.45,42.91,13.36,59.1,8.91,16.19,21.52,28.61,37.85,37.24,16.32,8.63,35.68,12.95,58.09,12.95s42.16-4.32,58.49-12.95c16.32-8.63,28.87-21.05,37.64-37.24,8.77-16.19,13.15-35.88,13.15-59.1v-8.66h16.08l40.92,40.92c1.51,1.51,3.41,2.27,5.3,2.27h38.63c3.26,10.83,13.32,18.95,25.4,18.95,14.78,0,26.52-11.74,26.52-26.52s-11.74-26.53-26.52-26.53ZM427.4,347.75c6.07,0,10.99,4.93,10.99,11.37,0,6.06-4.92,11.36-10.99,11.36-6.44,0-11.36-5.3-11.36-11.36,0-6.44,4.92-11.37,11.36-11.37ZM453.93,252.65c6.44,0,11.36,4.92,11.36,11.36,0,6.07-4.92,11.37-11.36,11.37-6.07,0-11.37-5.3-11.37-11.37,0-6.44,4.93-11.36,11.37-11.36ZM453.93,464.82c-6.44,0-11.37-5.3-11.37-11.36s5.3-11.37,11.37-11.37c6.44,0,11.36,4.93,11.36,11.37,0,6.06-4.92,11.36-11.36,11.36Z"/>
</svg>